<svg width="24" height="24" viewBox="0 0 24 24" fill="none" xmlns="http://www.w3.org/2000/svg">
<path d="M19.7591 10.7701L19.6691 10.4201H12.2291V13.5801H16.6791C16.4308 14.5444 15.8663 15.3975 15.0759 16.003C14.2854 16.6085 13.3148 16.9315 12.3191 16.9201C11.0198 16.9104 9.77115 16.4145 8.81913 15.5301C8.35087 15.0686 7.97825 14.5193 7.72257 13.9135C7.4669 13.3078 7.3332 12.6576 7.32913 12.0001C7.34424 10.6796 7.86705 9.41556 8.78913 8.47014C9.72823 7.5805 10.9756 7.08945 12.2691 7.10014C13.377 7.10867 14.4437 7.52113 15.2691 8.26014L17.4691 6.00014C16.0191 4.7065 14.1423 3.99422 12.1991 4.00014C11.1302 3.99379 10.0704 4.19806 9.0804 4.60127C8.09038 5.00448 7.18948 5.59875 6.42913 6.35014C4.98282 7.85242 4.1674 9.85194 4.15065 11.9372C4.13391 14.0225 4.91713 16.0348 6.33913 17.5601C7.12697 18.3451 8.06335 18.9651 9.09354 19.3841C10.1237 19.803 11.2271 20.0124 12.3391 20.0001C13.3476 20.0076 14.3471 19.8103 15.277 19.4201C16.2069 19.0299 17.048 18.455 17.7491 17.7301C19.1251 16.2172 19.8694 14.2348 19.8291 12.1901C19.8395 11.7157 19.8161 11.2412 19.7591 10.7701Z" fill="black"/>
</svg>
